<svg width="40" height="40" viewBox="0 0 40 40" fill="none" xmlns="http://www.w3.org/2000/svg">
<circle cx="20" cy="20" r="19.5" stroke="#050505"/>
<mask id="path-2-inside-1_38_2056" fill="white">
<path fill-rule="evenodd" clip-rule="evenodd" d="M21.216 13L14.216 20L21.216 27L20.1554 28.0607L12.0947 20L20.1554 11.9393L21.216 13Z"/>
<path fill-rule="evenodd" clip-rule="evenodd" d="M13.4053 19.25L27.9053 19.25V20.75L13.4053 20.75L13.4053 19.25Z"/>
</mask>
<path d="M21.216 13L21.9232 13.7071L22.6303 13L21.9232 12.2929L21.216 13ZM14.216 20L13.5089 19.2929L12.8018 20L13.5089 20.7071L14.216 20ZM21.216 27L21.9232 27.7071L22.6303 27L21.9232 26.2929L21.216 27ZM20.1554 28.0607L19.4483 28.7678L20.1554 29.4749L20.8625 28.7678L20.1554 28.0607ZM12.0947 20L11.3876 19.2929L10.6805 20L11.3876 20.7071L12.0947 20ZM20.1554 11.9393L20.8625 11.2322L20.1554 10.5251L19.4483 11.2322L20.1554 11.9393ZM13.4053 19.25L13.4053 18.25C13.1401 18.25 12.8857 18.3554 12.6982 18.5429C12.5106 18.7304 12.4053 18.9848 12.4053 19.25H13.4053ZM27.9053 19.25H28.9053C28.9053 18.6977 28.4576 18.25 27.9053 18.25V19.25ZM27.9053 20.75V21.75C28.1705 21.75 28.4248 21.6446 28.6124 21.4571C28.7999 21.2696 28.9053 21.0152 28.9053 20.75H27.9053ZM13.4053 20.75H12.4053C12.4053 21.0152 12.5106 21.2696 12.6982 21.4571C12.8857 21.6446 13.1401 21.75 13.4053 21.75L13.4053 20.75ZM20.8625 28.7678L21.9232 27.7071L20.5089 26.2929L19.4483 27.3535L20.8625 28.7678ZM21.9232 12.2929L20.8625 11.2322L19.4483 12.6464L20.5089 13.7071L21.9232 12.2929ZM14.9232 20.7071L21.9232 13.7071L20.5089 12.2929L13.5089 19.2929L14.9232 20.7071ZM21.9232 26.2929L14.9232 19.2929L13.5089 20.7071L20.5089 27.7071L21.9232 26.2929ZM11.3876 20.7071L19.4483 28.7678L20.8625 27.3535L12.8018 19.2929L11.3876 20.7071ZM19.4483 11.2322L11.3876 19.2929L12.8018 20.7071L20.8625 12.6464L19.4483 11.2322ZM28.9053 20.75V19.25H26.9053V20.75H28.9053ZM12.4053 19.25L12.4053 20.75H14.4053L14.4053 19.25H12.4053ZM27.9053 18.25L13.4053 18.25L13.4053 20.25L27.9053 20.25V18.25ZM13.4053 21.75L27.9053 21.75V19.75L13.4053 19.75L13.4053 21.75Z" fill="#050505" mask="url(#path-2-inside-1_38_2056)"/>
</svg>
