<svg width="17" height="17" viewBox="0 0 17 17" fill="none" xmlns="http://www.w3.org/2000/svg">
<path d="M12.0971 11.2378C11.8598 11.0004 11.475 11.0004 11.2377 11.2378C11.0004 11.4751 11.0004 11.8598 11.2377 12.0971L12.0971 11.2378ZM12.9639 7.08958C12.9639 10.3338 10.3339 12.9638 7.08961 12.9638V14.1792C11.0051 14.1792 14.1792 11.0051 14.1792 7.08958H12.9639ZM7.08961 12.9638C3.84536 12.9638 1.21536 10.3338 1.21536 7.08958H0C0 11.0051 3.17413 14.1792 7.08961 14.1792V12.9638ZM1.21536 7.08958C1.21536 3.84534 3.84536 1.21536 7.08961 1.21536V0C3.17413 0 0 3.17411 0 7.08958H1.21536ZM7.08961 1.21536C10.3339 1.21536 12.9639 3.84534 12.9639 7.08958H14.1792C14.1792 3.17411 11.0051 0 7.08961 0V1.21536ZM17 16.1407L12.0971 11.2378L11.2377 12.0971L16.1407 17L17 16.1407Z" fill="#050505"/>
</svg>
